<svg width="16" height="16" viewBox="0 0 16 16" fill="none" xmlns="http://www.w3.org/2000/svg">
<path d="M4.70917 12.8567L5.25417 13.1483C6.0981 13.5995 7.04055 13.8348 7.9975 13.8333H8C9.15372 13.8333 10.2815 13.4912 11.2408 12.8502C12.2001 12.2093 12.9478 11.2982 13.3893 10.2323C13.8308 9.16642 13.9463 7.99353 13.7212 6.86197C13.4962 5.73042 12.9406 4.69102 12.1248 3.87521C11.309 3.0594 10.2696 2.50383 9.13803 2.27875C8.00647 2.05367 6.83358 2.16919 5.76768 2.6107C4.70178 3.05221 3.79074 3.79989 3.14976 4.75917C2.50879 5.71846 2.16667 6.84628 2.16667 8V8.0025C2.16519 8.95945 2.40052 9.9019 2.85167 10.7458L3.14333 11.2908L2.695 13.305L4.70917 12.8567ZM0.5 15.5L1.38167 11.5317C0.771622 10.3888 0.468027 9.10734 0.500461 7.81223C0.532896 6.51712 0.900253 5.25249 1.56674 4.14157C2.23323 3.03064 3.17612 2.1113 4.30355 1.47312C5.43097 0.834934 6.70448 0.499674 8 0.5C9.98912 0.5 11.8968 1.29018 13.3033 2.6967C14.7098 4.10322 15.5 6.01088 15.5 8C15.5003 9.29552 15.1651 10.569 14.5269 11.6965C13.8887 12.8239 12.9694 13.7668 11.8584 14.4333C10.7475 15.0997 9.48288 15.4671 8.18777 15.4995C6.89266 15.532 5.61123 15.2284 4.46833 14.6183L0.5 15.5Z" fill="#636363"/>
</svg>
